<?xml version="1.0" encoding="UTF-8" standalone="no"?><!DOCTYPE svg PUBLIC "-//W3C//DTD SVG 1.1//EN" "http://www.w3.org/Graphics/SVG/1.1/DTD/svg11.dtd">
<svg width="100%" height="100%" viewBox="0 0 600 400" version="1.1" xmlns="http://www.w3.org/2000/svg" xmlns:xlink="http://www.w3.org/1999/xlink" xml:space="preserve" style="fill-rule:evenodd;clip-rule:evenodd;stroke-linejoin:round;stroke-miterlimit:1.41421;">
  <rect x="77.018" y="130.286" width="114.923" height="232.94" style="fill:#e74646;"/>
  <rect x="203.2" y="206.53" width="114.923" height="156.696" style="fill:#e74646;"/>
  <rect x="335.603" y="246.756" width="114.923" height="116.47" style="fill:#e74646;"/>
  <rect x="438.741" y="123.769" width="99.739" height="116.47" style="fill:#e74646;"/>
  <rect x="354.386" y="73.995" width="81.9" height="76.824" style="fill:#e74646;"/>
  <rect x="77.018" y="36.774" width="114.923" height="86.996" style="fill:#e74646;"/>
  <g transform="matrix(1,0,0,1,120.953,51.237)">
    <text x="108.999px" y="231.514px" style="font-family:'FrutigerCE-Light', 'Frutiger CE 45 Light';font-weight:300;font-size:29.333px;fill:#fff;">Petite</text><text x="117.139px" y="262.959px" style="font-family:'FrutigerCE-Light', 'Frutiger CE 45 Light';font-weight:300;font-size:29.333px;fill:#fff;">salle</text></g><g transform="matrix(1,0,0,1,249.48,68.2709)"><text x="120.395px" y="231.514px" style="font-family:'FrutigerCE-Light', 'Frutiger CE 45 Light';font-weight:300;font-size:29.333px;fill:#fff;">WC</text><text x="100.037px" y="262.959px" style="font-family:'FrutigerCE-Light', 'Frutiger CE 45 Light';font-weight:300;font-size:29.333px;fill:#fff;">femme</text></g><g transform="matrix(1,0,0,1,344.588,-57.3119)"><text x="120.395px" y="231.514px" style="font-family:'FrutigerCE-Light', 'Frutiger CE 45 Light';font-weight:300;font-size:29.333px;fill:#fff;">WC</text><text x="95.945px" y="262.959px" style="font-family:'FrutigerCE-Light', 'Frutiger CE 45 Light';font-weight:300;font-size:29.333px;fill:#fff;">homme</text></g><g transform="matrix(1,0,0,1,251.313,-126.91)"><text x="117.139px" y="231.514px" style="font-family:'FrutigerCE-Light', 'Frutiger CE 45 Light';font-weight:300;font-size:29.333px;fill:#fff;">salle</text><text x="104.892px" y="262.959px" style="font-family:'FrutigerCE-Light', 'Frutiger CE 45 Light';font-weight:300;font-size:29.333px;fill:#fff;">au bol</text></g><text x="89.673px" y="87.669px" style="font-family:'FrutigerCE-Light', 'Frutiger CE 45 Light';font-weight:300;font-size:29.333px;fill:#fff;">Accueil</text><g><text x="103.142px" y="218.893px" style="font-family:'ArialMT', 'Arial', sans-serif;font-size:18px;fill:#000;">Grande</text><text x="114.651px" y="237.482px" style="font-family:'ArialMT', 'Arial', sans-serif;font-size:18px;fill:#000;">salle</text></g></svg>
